<?xml version="1.0" encoding="UTF-8" standalone="no"?>
<svg
   viewBox="0 0 24 24"
   version="1.1"
   id="svg193"
   sodipodi:docname="logo.svg"
   width="24"
   height="24"
   inkscape:version="1.2.2 (732a01da63, 2022-12-09)"
   xml:space="preserve"
   xmlns:inkscape="http://www.inkscape.org/namespaces/inkscape"
   xmlns:sodipodi="http://sodipodi.sourceforge.net/DTD/sodipodi-0.dtd"
   xmlns="http://www.w3.org/2000/svg"
   xmlns:svg="http://www.w3.org/2000/svg"><defs
     id="defs197" /><sodipodi:namedview
     id="namedview195"
     pagecolor="#505050"
     bordercolor="#eeeeee"
     borderopacity="1"
     inkscape:showpageshadow="0"
     inkscape:pageopacity="0"
     inkscape:pagecheckerboard="0"
     inkscape:deskcolor="#505050"
     showgrid="false"
     inkscape:zoom="10.643818"
     inkscape:cx="7.9388806"
     inkscape:cy="7.7979537"
     inkscape:window-width="1920"
     inkscape:window-height="1009"
     inkscape:window-x="-8"
     inkscape:window-y="-8"
     inkscape:window-maximized="1"
     inkscape:current-layer="svg193" /><rect
     style="fill:#000000;fill-opacity:1;stroke-width:1.88976;stroke-linecap:square;stroke-linejoin:bevel;paint-order:fill markers stroke;stop-color:#000000"
     id="rect1755"
     width="24"
     height="24"
     x="-64"
     y="0"
     transform="scale(-1,1)" /><g
     id="g704"
     transform="matrix(1.0827135,0,0,1.1169797,12.408739,-27.908926)"
     style="stroke-width:0.909328"><path
       style="fill:#ff7070;fill-opacity:1;stroke:none;stroke-width:17.1841;stroke-linecap:square;stroke-linejoin:bevel;paint-order:fill markers stroke;stop-color:#ff7070"
       d="M 0.60079047,17.538461 9.9159317,0.9300699 18.79781,11.039526 Z"
       id="path482" /><path
       style="fill:#ff7070;fill-opacity:1;stroke:none;stroke-width:17.1841;stroke-linecap:square;stroke-linejoin:bevel;paint-order:fill markers stroke;stop-color:#ff7070"
       d="m 16.409091,12.555944 3.587413,7.174825 c 0,0 -17.538462,-1.86014 -17.2727278,-2.125874 0.2657343,-0.265734 13.6853148,-5.048951 13.6853148,-5.048951 z"
       id="path646" /></g><path
     id="path819"
     style="fill:#6dd9b9;fill-opacity:1;stroke-width:1.88976;stroke-linecap:square;stroke-linejoin:bevel;paint-order:fill markers stroke;stop-color:#000000"
     d="M 12 1 L 1 3.9550781 C 1 3.9550781 1.2551495 5.9300939 1.6914062 8.3085938 L 6.4980469 7 L 6.4980469 18.923828 C 9.0026267 21.215925 12 23 12 23 C 12 23 12.697347 22.577933 13.660156 21.921875 L 13.660156 1.4453125 L 12 1 z M 14.693359 1.7226562 L 14.693359 21.197266 C 15.741483 20.434554 16.93852 19.481155 18 18.449219 L 18 14.375 C 18 14.375 19.387981 14.740148 20.550781 15.046875 C 21.038177 13.918303 21.469396 12.327782 21.830078 10.703125 L 18 9.6523438 L 18 7 L 22.332031 8.1796875 C 22.753182 5.8617446 23 3.9550781 23 3.9550781 L 14.693359 1.7226562 z " /><path
     id="path819-0"
     style="fill:#6dd9b9;fill-opacity:1;stroke-width:1.88976;stroke-linecap:square;stroke-linejoin:bevel;paint-order:fill markers stroke;stop-color:#000000"
     d="M 52,1 41,3.955892 c 0,0 1.105047,8.715296 2.75,11.710775 C 45.728719,19.269937 52,23 52,23 c 0,0 0.696858,-0.42174 1.659668,-1.077799 V 1.4458008 Z m 2.692708,0.7233073 V 21.197103 C 56.645629,19.775978 59.132431,17.701772 60.25,15.666667 61.894953,12.671188 63,3.955892 63,3.955892 Z" /><path
     style="fill:#6dd9b9;fill-opacity:1;stroke-width:1.88976;stroke-linecap:square;stroke-linejoin:bevel;paint-order:fill markers stroke;stop-color:#000000"
     d="M -16.000001,3.2255639 -27.999674,0 -40,3.2255639 c 0,0 1.205504,9.5066381 3,12.7744361 2.158605,3.930844 9,8 9,8 0,0 6.841395,-4.069156 9,-8 1.794496,-3.267798 2.999999,-12.7744361 2.999999,-12.7744361 z"
     id="path819-7"
     sodipodi:nodetypes="cccscsc" /><path
     id="path339-1"
     style="fill:#00ff00;stroke-width:1.71841;stroke-linecap:square;stroke-linejoin:bevel;paint-order:fill markers stroke;stop-color:#000000"
     inkscape:transform-center-y="3.1618818"
     d="m -1.327538,-25.429407 v 15.515625 l 2.730469,-4.728516 v -2.935547 h 1.695313 l 1.457031,-2.52539 H 1.402931 v -2.65625 h 4.6875 l 1.541016,-2.669922 z" /><path
     id="path339"
     style="fill:#f3edd2;stroke-width:1.71841;stroke-linecap:square;stroke-linejoin:bevel;paint-order:fill markers stroke;stop-color:#000000"
     inkscape:transform-center-y="3.1618818"
     d="m -14.274803,-25.429407 5.476562,9.484375 5.476563,9.486328 1.396484,-2.419922 v -16.550781 h -1.396484 z" /><path
     id="path1629-9"
     style="fill:#000000;fill-opacity:1;stroke-width:1.88976;stroke-linecap:square;stroke-linejoin:bevel;paint-order:fill markers stroke;stop-color:#000000"
     d="M 46.498047,7 34,10.402344 V 31.320312 L 46.498047,27.972656 Z M 58,7 v 2.6523438 l 7.365234,2.0214842 c 0,0 0.138981,4.756021 0,4.675781 C 65.226254,16.269369 58,14.375 58,14.375 v 13.597656 l 12.498047,3.347656 V 10.402344 Z" /></svg>
