<?xml version="1.0" encoding="UTF-8" standalone="no"?>
<svg
   viewBox="0 0 24 24"
   version="1.1"
   id="svg193"
   sodipodi:docname="logo.svg"
   width="24"
   height="24"
   inkscape:version="1.2.2 (732a01da63, 2022-12-09)"
   xml:space="preserve"
   xmlns:inkscape="http://www.inkscape.org/namespaces/inkscape"
   xmlns:sodipodi="http://sodipodi.sourceforge.net/DTD/sodipodi-0.dtd"
   xmlns="http://www.w3.org/2000/svg"
   xmlns:svg="http://www.w3.org/2000/svg"><defs
     id="defs197" /><sodipodi:namedview
     id="namedview195"
     pagecolor="#505050"
     bordercolor="#eeeeee"
     borderopacity="1"
     inkscape:showpageshadow="0"
     inkscape:pageopacity="0"
     inkscape:pagecheckerboard="0"
     inkscape:deskcolor="#505050"
     showgrid="false"
     inkscape:zoom="10.643818"
     inkscape:cx="21.373909"
     inkscape:cy="7.7979536"
     inkscape:window-width="1920"
     inkscape:window-height="1009"
     inkscape:window-x="-8"
     inkscape:window-y="-8"
     inkscape:window-maximized="1"
     inkscape:current-layer="svg193" /><rect
     style="fill:#000000;fill-opacity:1;stroke-width:1.88976;stroke-linecap:square;stroke-linejoin:bevel;paint-order:fill markers stroke;stop-color:#000000"
     id="rect1755"
     width="24"
     height="24"
     x="-24"
     y="0"
     transform="scale(-1,1)" /><g
     id="g704"
     transform="matrix(1.0827135,0,0,1.1169797,40.782016,-11.373506)"
     style="stroke-width:0.909328"><path
       style="fill:#ff7070;fill-opacity:1;stroke:none;stroke-width:17.1841;stroke-linecap:square;stroke-linejoin:bevel;paint-order:fill markers stroke;stop-color:#ff7070"
       d="M 0.60079047,17.538461 9.9159317,0.9300699 18.79781,11.039526 Z"
       id="path482" /><path
       style="fill:#ff7070;fill-opacity:1;stroke:none;stroke-width:17.1841;stroke-linecap:square;stroke-linejoin:bevel;paint-order:fill markers stroke;stop-color:#ff7070"
       d="m 16.409091,12.555944 3.587413,7.174825 c 0,0 -17.538462,-1.86014 -17.2727278,-2.125874 0.2657343,-0.265734 13.6853148,-5.048951 13.6853148,-5.048951 z"
       id="path646" /></g><path
     id="path819"
     style="fill:#6dd9b9;fill-opacity:1;stroke-width:1.88976;stroke-linecap:square;stroke-linejoin:bevel;paint-order:fill markers stroke;stop-color:#000000"
     d="M 12,1 1,3.955892 c 0,0 1.1050468,8.715296 2.75,11.710775 C 5.7287193,19.269937 12,23 12,23 c 0,0 0.696858,-0.42174 1.659668,-1.077799 V 1.4458008 Z m 2.692708,0.7233073 V 21.197103 C 16.645629,19.775978 19.132431,17.701772 20.25,15.666667 21.894953,12.671188 23,3.955892 23,3.955892 Z" /><path
     style="fill:#6dd9b9;fill-opacity:1;stroke-width:1.88976;stroke-linecap:square;stroke-linejoin:bevel;paint-order:fill markers stroke;stop-color:#000000"
     d="M -16.000001,3.2255639 -27.999674,0 -40,3.2255639 c 0,0 1.205504,9.5066381 3,12.7744361 2.158605,3.930844 9,8 9,8 0,0 6.841395,-4.069156 9,-8 1.794496,-3.267798 2.999999,-12.7744361 2.999999,-12.7744361 z"
     id="path819-7"
     sodipodi:nodetypes="cccscsc" /><path
     id="path339-1"
     style="fill:#00ff00;stroke-width:1.71841;stroke-linecap:square;stroke-linejoin:bevel;paint-order:fill markers stroke;stop-color:#000000"
     inkscape:transform-center-y="3.1618818"
     d="m -1.327538,-25.429407 v 15.515625 l 2.730469,-4.728516 v -2.935547 h 1.695313 l 1.457031,-2.52539 H 1.402931 v -2.65625 h 4.6875 l 1.541016,-2.669922 z" /><path
     id="path339"
     style="fill:#f3edd2;stroke-width:1.71841;stroke-linecap:square;stroke-linejoin:bevel;paint-order:fill markers stroke;stop-color:#000000"
     inkscape:transform-center-y="3.1618818"
     d="m -14.274803,-25.429407 5.476562,9.484375 5.476563,9.486328 1.396484,-2.419922 v -16.550781 h -1.396484 z" /><path
     style="fill:#000000;fill-opacity:1;stroke-width:1.88976;stroke-linecap:square;stroke-linejoin:bevel;paint-order:fill markers stroke;stop-color:#000000"
     d="m 18,7 v 2.6516537 l 7.365173,2.0223683 c 0,0 0.138981,4.755435 0,4.675195 C 25.226192,16.268977 18,14.375725 18,14.375725 v 13.596423 l 12.497614,3.348725 V 10.403264"
     id="path1629"
     sodipodi:nodetypes="cccscccc" /><path
     style="fill:#000000;fill-opacity:1;stroke-width:1.88976;stroke-linecap:square;stroke-linejoin:bevel;paint-order:fill markers stroke;stop-color:#000000"
     d="M 6.497614,7 V 27.972148 L -6,31.320873 V 10.403264"
     id="path1629-6"
     sodipodi:nodetypes="cccc" /></svg>
