<?xml version="1.0" encoding="UTF-8" standalone="no"?>
<svg
   viewBox="0 0 24 24"
   version="1.1"
   id="svg193"
   sodipodi:docname="logo.svg"
   width="24"
   height="24"
   inkscape:version="1.3.2 (091e20e, 2023-11-25, custom)"
   xml:space="preserve"
   xmlns:inkscape="http://www.inkscape.org/namespaces/inkscape"
   xmlns:sodipodi="http://sodipodi.sourceforge.net/DTD/sodipodi-0.dtd"
   xmlns="http://www.w3.org/2000/svg"
   xmlns:svg="http://www.w3.org/2000/svg"><defs
     id="defs197" /><sodipodi:namedview
     id="namedview195"
     pagecolor="#505050"
     bordercolor="#eeeeee"
     borderopacity="1"
     inkscape:showpageshadow="0"
     inkscape:pageopacity="0"
     inkscape:pagecheckerboard="0"
     inkscape:deskcolor="#505050"
     showgrid="false"
     inkscape:zoom="15.052632"
     inkscape:cx="2.3583916"
     inkscape:cy="14.582168"
     inkscape:window-width="1920"
     inkscape:window-height="1017"
     inkscape:window-x="-8"
     inkscape:window-y="-8"
     inkscape:window-maximized="1"
     inkscape:current-layer="svg193" /><rect
     style="display:inline;fill:#000000;fill-opacity:1;stroke-width:1.88976;stroke-linecap:square;stroke-linejoin:bevel;paint-order:fill markers stroke;stop-color:#000000"
     id="rect1755"
     width="24"
     height="24"
     x="-64"
     y="0"
     transform="scale(-1,1)" /><g
     id="g704"
     transform="matrix(1.0827135,0,0,1.1169797,12.408739,-27.908926)"
     style="display:inline;stroke-width:0.909328"><path
       style="fill:#ff7070;fill-opacity:1;stroke:none;stroke-width:17.1841;stroke-linecap:square;stroke-linejoin:bevel;paint-order:fill markers stroke;stop-color:#ff7070"
       d="M 0.60079047,17.538461 9.9159317,0.9300699 18.79781,11.039526 Z"
       id="path482" /><path
       style="fill:#ff7070;fill-opacity:1;stroke:none;stroke-width:17.1841;stroke-linecap:square;stroke-linejoin:bevel;paint-order:fill markers stroke;stop-color:#ff7070"
       d="m 16.409091,12.555944 3.587413,7.174825 c 0,0 -17.538462,-1.86014 -17.2727278,-2.125874 0.2657343,-0.265734 13.6853148,-5.048951 13.6853148,-5.048951 z"
       id="path646" /></g><path
     id="path819"
     style="fill:#f3ede4;fill-opacity:1;stroke-width:1.72998;stroke-linecap:square;stroke-linejoin:bevel;paint-order:fill markers stroke;stop-color:#000000"
     d="M 12,1.9300699 1.9300699,4.6352908 c 0,0 0.2335762,1.8080247 0.6329466,3.9854181 L 6.963247,7.4227591 V 18.338406 C 9.25606,20.436702 12,22.06993 12,22.06993 c 0,0 0.638385,-0.38638 1.519787,-0.986968 V 2.3377305 Z m 2.465631,0.6615543 V 20.41962 c 0.959503,-0.698223 2.055328,-1.57101 3.027058,-2.515694 v -3.729737 c 0,0 1.270625,0.334275 2.335108,0.615067 0.446186,-1.033149 0.840944,-2.489189 1.17113,-3.976478 L 17.492689,9.8508424 V 7.4227591 l 3.96575,1.0799427 c 0.385542,-2.1219566 0.611491,-3.867411 0.611491,-3.867411 z" /><path
     id="path819-0"
     style="display:inline;fill:#6dd9b9;fill-opacity:1;stroke-width:1.88976;stroke-linecap:square;stroke-linejoin:bevel;paint-order:fill markers stroke;stop-color:#000000"
     d="M 52,1 41,3.955892 c 0,0 1.105047,8.715296 2.75,11.710775 C 45.728719,19.269937 52,23 52,23 c 0,0 0.696858,-0.42174 1.659668,-1.077799 V 1.4458008 Z m 2.692708,0.7233073 V 21.197103 C 56.645629,19.775978 59.132431,17.701772 60.25,15.666667 61.894953,12.671188 63,3.955892 63,3.955892 Z" /><path
     style="display:inline;fill:none;fill-opacity:1;stroke:#f3ede4;stroke-width:1.03235;stroke-linecap:round;stroke-linejoin:round;stroke-dasharray:none;stroke-opacity:1;paint-order:stroke fill markers;stop-color:#000000"
     d="M 23.483832,3.6029908 12.000313,0.51617199 0.51616857,3.6029908 c 0,0 1.15365053,9.0977182 2.87095803,12.2249552 2.0657548,3.761762 8.6128744,7.655887 8.6128744,7.655887 0,0 6.547119,-3.894125 8.612873,-7.655887 1.717308,-3.127237 2.870958,-12.2249552 2.870958,-12.2249552 z"
     id="path819-7"
     sodipodi:nodetypes="cccscsc" /><path
     id="path339-1"
     style="display:inline;fill:#00ff00;stroke-width:1.71841;stroke-linecap:square;stroke-linejoin:bevel;paint-order:fill markers stroke;stop-color:#000000"
     inkscape:transform-center-y="3.1618818"
     d="m -1.327538,-25.429407 v 15.515625 l 2.730469,-4.728516 v -2.935547 h 1.695313 l 1.457031,-2.52539 H 1.402931 v -2.65625 h 4.6875 l 1.541016,-2.669922 z" /><path
     id="path339"
     style="display:inline;fill:#f3edd2;stroke-width:1.71841;stroke-linecap:square;stroke-linejoin:bevel;paint-order:fill markers stroke;stop-color:#000000"
     inkscape:transform-center-y="3.1618818"
     d="m -14.274803,-25.429407 5.476562,9.484375 5.476563,9.486328 1.396484,-2.419922 v -16.550781 h -1.396484 z" /><path
     id="path1629-9"
     style="display:inline;fill:#000000;fill-opacity:1;stroke-width:1.88976;stroke-linecap:square;stroke-linejoin:bevel;paint-order:fill markers stroke;stop-color:#000000"
     d="M 46.498047,7 34,10.402344 V 31.320312 L 46.498047,27.972656 Z M 58,7 v 2.6523438 l 7.365234,2.0214842 c 0,0 0.138981,4.756021 0,4.675781 C 65.226254,16.269369 58,14.375 58,14.375 v 13.597656 l 12.498047,3.347656 V 10.402344 Z" /></svg>
