<?xml version="1.0" encoding="UTF-8" standalone="no"?>
<!-- Created with Inkscape (http://www.inkscape.org/) -->

<svg
   width="1920"
   height="212"
   viewBox="0 0 507.99999 56.091663"
   version="1.1"
   id="svg5"
   xml:space="preserve"
   inkscape:version="1.2.2 (732a01da63, 2022-12-09)"
   sodipodi:docname="mountains.svg"
   xmlns:inkscape="http://www.inkscape.org/namespaces/inkscape"
   xmlns:sodipodi="http://sodipodi.sourceforge.net/DTD/sodipodi-0.dtd"
   xmlns="http://www.w3.org/2000/svg"
   xmlns:svg="http://www.w3.org/2000/svg"><sodipodi:namedview
     id="namedview7"
     pagecolor="#505050"
     bordercolor="#eeeeee"
     borderopacity="1"
     inkscape:showpageshadow="0"
     inkscape:pageopacity="0"
     inkscape:pagecheckerboard="0"
     inkscape:deskcolor="#505050"
     inkscape:document-units="mm"
     showgrid="false"
     inkscape:zoom="1.0419012"
     inkscape:cx="506.28601"
     inkscape:cy="228.42857"
     inkscape:window-width="1920"
     inkscape:window-height="1009"
     inkscape:window-x="-8"
     inkscape:window-y="-8"
     inkscape:window-maximized="1"
     inkscape:current-layer="g302" /><defs
     id="defs2" /><g
     inkscape:label="Calque 1"
     inkscape:groupmode="layer"
     id="layer1"><g
       id="g302"
       transform="translate(10.055623,1.0773883)"><path
         style="fill:#8c8c8c;fill-opacity:1;stroke-width:0.999996"
         d="m 187.42431,53.169149 c -0.7773,-0.06537 -1.72876,-0.178891 -2.11435,-0.252272 -1.00217,-0.190725 -2.51364,-0.578962 -2.51364,-0.645655 0,-0.05495 -3.48111,-1.505209 -4.80628,-2.002327 -0.36113,-0.135479 -1.1041,-0.468015 -1.65101,-0.738971 -0.5469,-0.270955 -1.13032,-0.507426 -1.29647,-0.52549 -0.16617,-0.01806 -0.30209,-0.06641 -0.30209,-0.107436 0,-0.08396 -3.30082,-1.438871 -4.87206,-1.999868 -2.15565,-0.769652 -5.59852,-1.252666 -10.03127,-1.407324 -5.7893,-0.201986 -12.25328,-0.559249 -13.96492,-0.771839 -2.59846,-0.322737 -4.47102,-0.848548 -6.17472,-1.733853 -2.03642,-1.058205 -4.56014,-1.652759 -8.89065,-2.094513 -2.91178,-0.297032 -17.49943,-2.542875 -26.82235,-4.129437 -0.92235,-0.156966 -1.87395,-0.285393 -2.11466,-0.285393 -0.27612,0 -0.43763,0.272779 -0.43763,0.738971 v 0.738972 h -2.777143 -2.77714 l -2.443246,0.648663 c -1.587975,0.421597 -2.625063,0.623641 -2.962653,0.577183 -0.592999,-0.0816 -9.224678,-1.457194 -10.875013,-1.733098 -0.870241,-0.145487 -1.853109,-0.182455 -4.8509,-0.182455 H 70.98657 l -3.406346,-0.538408 c -1.873495,-0.296125 -3.678237,-0.5853 -4.010541,-0.642612 -0.332304,-0.05731 -2.835149,-0.461111 -5.561888,-0.89733 -4.821809,-0.771391 -4.992932,-0.810999 -6.243285,-1.44507 l -1.285586,-0.651941 -4.027928,-0.435993 c -2.215357,-0.239795 -5.477978,-0.593685 -7.250269,-0.786419 -5.409242,-0.58825 -8.729841,-0.524463 -11.977676,0.230083 l -1.505063,0.349662 -5.342411,-0.863278 C 14.310566,30.601659 13.65808,30.499779 12.81781,30.401629 12.485506,30.362809 12.122992,30.302489 12.012224,30.267576 11.697541,30.168386 3.9098206,28.934512 2.4253529,28.74864 1.6069912,28.646174 0.05819021,28.57801 -1.6025741,28.571372 c -2.7705226,-0.01105 -2.9456556,0.003 -9.5846489,0.769367 -1.129053,0.130333 -2.17128,0.236971 -2.316057,0.236971 -0.144767,0 -0.263226,-0.642905 -0.263226,-1.428678 0,-0.785772 0.04519,-1.428472 0.100714,-1.428221 0.05538,2.95e-4 1.18824,0.110043 2.517456,0.243986 1.329216,0.13394 3.0620967,0.244581 3.8508536,0.245867 1.7665393,0.0029 6.44019261,0.437602 7.12524591,0.662757 0.2769184,0.09101 0.5034907,0.130243 0.5034907,0.08718 0,-0.04307 0.5989497,0.05033 1.33099889,0.207562 2.6502257,0.569205 13.1651709,0.888942 18.6072389,0.565806 0.664608,-0.03946 1.964109,-0.07531 2.887781,-0.07965 0.923667,-0.0043 1.610345,-0.03523 1.525944,-0.06863 -0.0844,-0.03341 1.891882,-0.131907 4.391731,-0.218892 2.499848,-0.08699 5.919744,-0.271029 7.599765,-0.408984 1.680026,-0.137955 3.688341,-0.262213 4.46293,-0.276129 0.774585,-0.01392 1.34031,-0.05237 1.25717,-0.08544 -0.08316,-0.03308 0.552405,-0.214645 1.412328,-0.403481 1.463712,-0.321425 1.788356,-0.347219 5.086753,-0.404159 3.041392,-0.05251 3.669977,-0.09521 4.596042,-0.312236 0.590036,-0.138278 1.196166,-0.221235 1.346951,-0.184349 0.15081,0.03689 0.274169,0.01918 0.274169,-0.03936 0,-0.05854 0.699113,-0.232194 1.553594,-0.385909 0.854475,-0.153712 1.624816,-0.323817 1.711867,-0.378008 0.08706,-0.05419 0.307708,-0.08635 0.490306,-0.07145 0.182637,0.0149 0.239916,-0.0094 0.127261,-0.05397 -0.349716,-0.138412 0.254853,-0.257656 2.964432,-0.584714 3.919051,-0.473047 5.780947,-0.748284 6.371544,-0.941876 0.292057,-0.09574 0.669694,-0.153115 0.839152,-0.127497 0.169458,0.02561 0.308089,-0.0076 0.308089,-0.07366 0,-0.191961 3.02124,-1.251937 3.403616,-1.19413 0.190581,0.02881 0.247574,-0.01071 0.126594,-0.08782 -0.120981,-0.07711 0.06237,-0.209265 0.407423,-0.293668 0.345054,-0.0844 0.627353,-0.176673 0.627353,-0.205043 0,-0.02837 0.812515,-0.335904 1.805593,-0.683407 1.582099,-0.553619 1.935683,-0.625741 2.856586,-0.582678 0.588143,0.0275 0.856341,0.07857 0.609008,0.115966 -0.243102,0.03675 0.238679,0.06404 1.070642,0.06065 0.831945,-0.0034 1.747134,-0.04322 2.033758,-0.08853 0.288536,-0.0456 0.738005,-0.04078 1.006983,0.01082 1.091332,0.209232 3.015517,0.215527 4.066487,0.0133 0.828491,-0.159416 1.190638,-0.176734 1.860883,-0.08899 1.058502,0.138574 1.871884,0.071 3.575197,-0.297034 0.750013,-0.162053 1.448874,-0.294642 1.553028,-0.294642 0.491348,0 2.442683,0.478965 2.196588,0.539165 -0.153854,0.03764 -0.09848,0.05994 0.123026,0.04956 0.601882,-0.02819 2.215361,0.113522 2.215361,0.194574 0,0.03884 0.2266,0.07638 0.50349,0.08341 5.202203,0.132179 6.435533,0.199695 6.096833,0.333752 -0.16913,0.06694 -0.0991,0.08351 0.17659,0.04182 0.25119,-0.03797 0.86828,-0.01495 1.37132,0.05115 0.50303,0.06611 1.44107,0.146703 2.08454,0.179099 0.64347,0.0324 1.36849,0.143593 1.61117,0.247103 0.78794,0.336077 2.66594,0.7436 3.42675,0.7436 0.40833,0 0.98848,0.07254 1.28928,0.161194 0.30081,0.08865 1.26034,0.271365 2.13234,0.406018 0.872,0.134652 1.95575,0.329212 2.40834,0.432357 0.45257,0.103141 1.50312,0.237386 2.33451,0.298317 0.83138,0.06093 1.41622,0.148539 1.29963,0.194684 -0.1166,0.04614 0.0706,0.08391 0.41599,0.08391 0.34538,0 0.62796,0.06256 0.62796,0.139035 0,0.07647 0.5781,0.258028 1.28468,0.403462 1.235,0.254199 1.41804,0.262214 4.73281,0.207227 4.49709,-0.07461 4.83527,-0.0878 4.60317,-0.179662 -0.26741,-0.105841 0.72536,-0.09506 1.44065,0.01563 0.40966,0.0634 0.80682,0.02654 1.34275,-0.124669 0.4372,-0.123353 1.25526,-0.217372 1.92266,-0.220976 0.63892,-0.0035 1.57537,-0.05488 2.08101,-0.114291 3.77457,-0.443482 4.79878,-0.52905 5.59371,-0.467334 0.59776,0.04641 0.7166,0.09069 0.37997,0.141573 -0.85721,0.129593 0.61682,0.198122 2.06948,0.09622 1.71828,-0.120546 4.06925,-0.120479 3.76458,9.8e-5 -0.13435,0.05318 0.15885,0.07191 0.68111,0.0435 0.50438,-0.02743 1.13837,-0.06078 1.40888,-0.07411 0.2705,-0.01332 0.63302,-0.06218 0.80559,-0.108565 0.17355,-0.04664 0.0438,-0.04728 -0.29044,-0.0014 -0.33231,0.0456 0.30209,-0.122879 1.40977,-0.37441 1.85819,-0.421954 2.98243,-0.529581 5.05199,-0.483638 0.12017,0.0027 0.24391,-0.07777 0.27503,-0.178748 0.0785,-0.254987 1.32819,-0.699781 1.7759,-0.632095 0.20281,0.03065 0.31889,-0.003 0.25804,-0.07475 -0.0609,-0.07177 0.12936,-0.118301 0.42275,-0.103409 0.29338,0.01488 0.42202,-0.01703 0.28587,-0.07092 -0.13616,-0.05389 0.35166,-0.159234 1.08403,-0.234088 0.73238,-0.07485 1.90079,-0.294674 2.59645,-0.488489 0.69567,-0.193813 1.34234,-0.333432 1.43705,-0.310264 0.0947,0.02317 0.18911,-0.0133 0.20976,-0.08104 0.20913,-0.686021 5.39042,-2.783458 6.87594,-2.783458 0.14829,0 0.22041,-0.03615 0.16018,-0.08032 -0.1667,-0.122313 1.53484,-0.667924 1.90734,-0.611609 0.17959,0.02715 0.30166,-0.01268 0.27131,-0.0885 -0.0305,-0.07582 0.85106,-0.372061 1.95874,-0.658308 1.10768,-0.286247 1.78947,-0.48746 1.51509,-0.44714 -0.33892,0.04981 -0.42198,0.02428 -0.259,-0.0796 0.13193,-0.08409 0.38236,-0.152898 0.55649,-0.152898 0.17412,0 0.42455,-0.06881 0.55648,-0.152913 0.13601,-0.08671 0.0695,-0.127149 -0.15371,-0.09341 -0.22317,0.03374 -0.28973,-0.0068 -0.15371,-0.09341 0.13192,-0.0841 0.38211,-0.152912 0.55591,-0.152912 0.17383,0 0.42978,-0.110846 0.56876,-0.246323 0.16627,-0.162042 0.53389,-0.246324 1.07443,-0.246324 0.4519,0 0.71294,-0.04303 0.58004,-0.09564 -0.13292,-0.0526 0.21765,-0.12384 0.77902,-0.158305 0.56137,-0.03447 0.92834,-0.09921 0.81549,-0.143875 -0.11284,-0.04466 -8e-4,-0.112126 0.24924,-0.149908 0.24991,-0.03778 0.61261,-0.0076 0.80599,0.06709 0.22764,0.08792 0.35376,0.09471 0.35775,0.01926 0.003,-0.06409 0.40557,-0.147528 0.89367,-0.185425 0.48812,-0.0379 1.09726,-0.118476 1.35364,-0.179066 2.03185,-0.480185 3.16029,-0.664496 3.8128,-0.622756 0.42084,0.02692 0.83787,-0.01399 0.9643,-0.09459 0.14049,-0.08956 0.0527,-0.116304 -0.23763,-0.07242 -0.29515,0.04462 -0.34948,0.0257 -0.15133,-0.05273 0.16998,-0.06729 0.61119,-0.103013 0.98041,-0.07939 0.36922,0.02362 0.90341,-0.01783 1.18707,-0.09211 0.28364,-0.07428 0.71414,-0.105062 0.95662,-0.0684 0.24249,0.03666 0.32903,0.02239 0.19235,-0.03171 -0.49289,-0.195083 0.52498,-0.771043 1.70149,-0.962786 0.65202,-0.106261 1.16231,-0.217108 1.134,-0.246324 -0.26956,-0.278111 3.70046,-1.45501 4.36794,-1.294852 0.13611,0.03267 0.18492,-0.02929 0.10847,-0.137677 -0.0872,-0.123623 0.0598,-0.186969 0.39443,-0.169985 0.29339,0.01488 0.42427,-0.01614 0.29082,-0.06895 -0.13344,-0.05281 0.12498,-0.1441492 0.57425,-0.2029672 0.44929,-0.05882 0.81687,-0.08218 0.81687,-0.05194 0,0.03026 0.42231,-0.01268 0.93843,-0.0954 0.51614,-0.08273 1.08898,-0.117002 1.27296,-0.07617 0.18397,0.04084 0.20414,0.01882 0.0447,-0.04892 -0.27427,-0.11659 0.24025,-0.172385 1.16757,-0.12662 0.22155,0.01094 0.28173,-0.0098 0.13378,-0.04592 -0.38521,-0.09423 0.93837,-0.445044 1.41007,-0.37373 0.22307,0.03372 0.26413,0.0084 0.0949,-0.05863 -0.32212,-0.127497 0.48283,-0.430835 0.9542,-0.359575 0.15747,0.02381 0.27288,-0.05428 0.25647,-0.173512 -0.0162,-0.119235 0.16941,-0.207934 0.41294,-0.19711 0.24353,0.01082 0.45847,-0.115559 0.4777,-0.280859 0.019,-0.165299 0.36375,-0.392383 0.76561,-0.504634 0.40271,-0.1124867 0.47675,-0.1675457 0.16493,-0.1226677 -0.38083,0.05481 -0.47222,0.04442 -0.27964,-0.0318 0.15733,-0.06227 0.66035,-0.162222 1.11783,-0.222112 0.60344,-0.07901 0.75649,-0.0791 0.55755,-3.94e-4 -0.15081,0.05969 0.37107,0.0154 1.15977,-0.09843 0.78868,-0.113825 1.43397,-0.245528 1.43397,-0.292667 0,-0.04713 0.28711,-0.05876 0.63797,-0.02583 0.51588,0.04842 0.53514,0.07669 0.10071,0.147694 -0.34205,0.05591 -0.13287,0.06482 0.57565,0.02455 1.20098,-0.06827 2.48031,0.107541 2.04276,0.280722 -0.14258,0.05642 -0.0776,0.07514 0.14434,0.04158 0.34563,-0.05225 2.94329,0.5545497 2.94329,0.6875347 0,0.02574 0.27355,0.11372 0.60789,0.195506 0.33435,0.08179 0.48654,0.200547 0.3382,0.263917 -0.14833,0.06337 -0.11512,0.08083 0.0737,0.03881 0.38883,-0.08652 3.05435,0.914427 2.75288,1.033748 -0.10732,0.04248 -0.009,0.07723 0.2188,0.07723 0.22764,0 0.29819,0.07378 0.15671,0.163955 -0.16218,0.103387 -0.0976,0.139833 0.17478,0.09865 0.4599,-0.06953 1.42104,0.4671112 1.01465,0.5665212 -0.12959,0.0317 -0.0419,0.05764 0.19486,0.05764 0.70578,0 1.32153,0.548934 0.77506,0.690955 -0.36789,0.09561 -0.28839,0.09898 0.37398,0.01588 0.73265,-0.09191 1.09626,-0.04084 2.81955,0.396099 1.08814,0.275893 1.70655,0.469288 1.37424,0.429767 -0.3323,-0.03952 -0.21456,0.0095 0.26166,0.109123 1.05741,0.221016 3.03372,1.164828 2.64051,1.261012 -0.15619,0.03822 -0.0756,0.0547 0.17921,0.03663 0.25476,-0.01806 0.43601,-3.94e-4 0.40281,0.03916 -0.0333,0.0396 0.35043,0.142395 0.8526,0.228432 0.50216,0.08604 0.80866,0.197738 0.68112,0.248222 -0.12755,0.05048 -0.0205,0.09178 0.23772,0.09178 0.25833,0 0.36271,0.06818 0.23197,0.151522 -0.13154,0.08385 0.0129,0.175047 0.32336,0.204189 0.51954,0.04877 1.25421,0.484671 1.10262,0.654216 -0.0362,0.04065 0.11151,0.0739 0.32855,0.0739 0.57959,0 2.1002,0.776157 1.77374,0.905368 -0.1618,0.06403 -0.0981,0.08304 0.15176,0.04527 0.23683,-0.03581 0.50628,-0.0095 0.59873,0.05825 0.0924,0.06785 0.42512,0.127876 0.73928,0.133399 2.19818,0.03865 2.20469,0.03925 1.57818,0.146552 -0.4686,0.08026 -0.39405,0.08896 0.33245,0.03876 0.70536,-0.04874 1.22475,0.0044 2.10347,0.215236 0.64176,0.153974 1.17187,0.335376 1.17802,0.403115 0.006,0.06774 0.20315,0.123161 0.43778,0.123161 0.23459,0 0.29548,0.05188 0.1353,0.115268 -0.1971,0.07803 -0.0697,0.09448 0.39429,0.05092 0.4246,-0.03986 0.77276,-0.0087 0.91476,0.08179 0.12607,0.08037 0.48743,0.146133 0.80298,0.146133 0.31556,0 0.67767,0.06625 0.8047,0.147229 0.12702,0.08097 0.3667,0.126705 0.53262,0.101617 0.46713,-0.07062 3.72999,0.480988 4.81471,0.813947 0.5343,0.164006 1.21008,0.275796 1.50172,0.24842 0.71391,-0.06701 3.10177,0.528295 2.82549,0.704412 -0.12018,0.07661 -0.019,0.155568 0.22521,0.175467 0.24406,0.0199 0.43511,0.189034 0.42465,0.375853 -0.0105,0.186818 0.0758,0.277534 0.19172,0.201592 0.15871,-0.103945 0.32193,-0.08779 0.66041,0.06537 0.24729,0.111893 1.09092,0.373555 1.87477,0.581461 1.5278,0.405235 2.29093,0.79311 2.48289,1.261978 0.0688,0.168096 0.63447,0.414478 1.32824,0.578536 0.6646,0.157163 1.15857,0.327988 1.0977,0.379611 -0.0609,0.05163 0.10209,0.0617 0.36213,0.02238 0.77193,-0.116701 3.21042,-0.1365 2.92557,-0.02375 -0.15043,0.05954 0.0919,0.05506 0.59681,-0.01106 0.67192,-0.08797 1.06201,-0.07732 1.86118,0.05076 0.55609,0.08913 1.01108,0.239483 1.01108,0.334118 0,0.126199 0.24586,0.160565 0.92244,0.128929 0.67381,-0.03151 1.0664,0.02266 1.45652,0.200977 0.29377,0.134262 1.32178,0.388484 2.28453,0.564939 0.96274,0.176456 1.63768,0.369278 1.49984,0.428495 -0.13782,0.05922 -0.10708,0.07598 0.0683,0.03724 0.48943,-0.108076 1.88674,0.112533 1.56949,0.247801 -0.15248,0.06502 -0.13373,0.08652 0.0419,0.04778 0.17541,-0.03874 0.70293,-0.0186 1.17226,0.04475 0.46932,0.06334 1.66898,0.140656 2.66589,0.171801 1.18663,0.03708 1.77435,0.10071 1.70189,0.18427 -0.0608,0.07021 0.0545,0.102664 0.25647,0.07214 0.42017,-0.06353 1.37364,0.178252 1.03225,0.261761 -0.12359,0.03023 0.10452,0.04833 0.50698,0.0402 0.41532,-0.0084 0.68388,0.04165 0.62107,0.11571 -0.0609,0.07177 0.0545,0.105504 0.25647,0.07498 0.48524,-0.07336 1.34246,0.183706 0.9584,0.28741 -0.16422,0.04435 -0.0998,0.05293 0.14325,0.01908 0.24301,-0.03386 0.95969,0.07066 1.59262,0.232261 0.8456,0.215905 1.47611,0.288464 2.37769,0.273634 0.67481,-0.01106 1.71537,0.05812 2.31236,0.153825 0.59698,0.09571 1.50326,0.163923 2.01396,0.151596 0.51069,-0.01233 1.23705,0.01024 1.61413,0.05022 0.37707,0.03995 0.88516,0.04247 1.12906,0.0056 0.4839,-0.07315 2.11011,0.325106 1.81096,0.443508 -0.31137,0.123229 6.95277,0.118171 7.89744,-0.0055 0.70949,-0.09288 1.14209,-0.07771 2.32728,0.08159 0.80068,0.107622 2.09458,0.245555 2.87532,0.306514 0.98794,0.07713 1.6615,0.221462 2.21536,0.47469 0.43773,0.200119 0.75051,0.399506 0.69513,0.443082 -0.0554,0.04357 0.12588,0.06815 0.40281,0.05459 0.27693,-0.01355 0.4795,0.05122 0.45019,0.143931 -0.0295,0.09271 0.15195,0.159217 0.40281,0.147794 0.25086,-0.0114 0.40628,0.03795 0.34543,0.109717 -0.0608,0.07177 0.0552,0.105399 0.25804,0.07475 0.39634,-0.05992 1.91008,0.430857 1.74481,0.565698 -0.0548,0.04468 0.0738,0.05501 0.28568,0.02298 0.21184,-0.03203 0.6695,0.04105 1.01696,0.162394 0.34748,0.121346 0.63175,0.188276 0.63175,0.148733 0,-0.03954 0.95159,0.09216 2.11466,0.292667 1.16306,0.200512 2.88695,0.492493 3.83086,0.648847 1.02567,0.169898 1.60744,0.330739 1.44589,0.399747 -0.14867,0.06351 -0.11575,0.08107 0.0732,0.03903 0.18892,-0.04203 1.26021,0.142668 2.38064,0.410463 1.12043,0.267795 2.61618,0.568222 3.32389,0.667614 7.22941,1.015315 9.58335,1.486831 11.42567,2.288672 0.51122,0.222499 1.17869,0.404543 1.48327,0.404543 0.32902,0 0.43621,0.04998 0.26404,0.123162 -0.15938,0.06774 -0.1471,0.09168 0.0271,0.05319 0.42365,-0.0935 2.71909,0.201976 2.43686,0.31368 -0.12164,0.04813 -0.009,0.119608 0.25048,0.158821 0.29453,0.04453 0.3637,0.02858 0.18421,-0.04245 -0.40048,-0.158511 0.36784,-0.14301 0.9157,0.01848 0.24672,0.07272 0.31423,0.16851 0.15,0.212855 -0.16422,0.04435 -0.0772,0.0495 0.19353,0.01152 0.27065,-0.03803 0.92929,8.9e-4 1.46361,0.08656 0.53433,0.08564 1.12853,0.14379 1.32046,0.12922 0.58781,-0.04462 3.79533,0.472607 3.47178,0.559844 -0.16679,0.04498 -0.0913,0.05209 0.16775,0.0158 0.25904,-0.03628 0.71651,-0.01012 1.01657,0.0581 0.9043,0.205653 1.48793,0.222365 7.97804,0.228454 6.26247,0.0058 12.92906,0.227913 13.22584,0.440502 0.0743,0.05323 0.29415,0.07273 0.48855,0.04335 0.4236,-0.06404 5.09718,0.299369 5.87139,0.456546 0.29971,0.06085 0.46142,0.143718 0.35923,0.184152 -0.10219,0.04043 0.30766,0.05344 0.91071,0.02891 0.60302,-0.02453 1.51604,-0.04498 2.02887,-0.04544 0.51284,-4.93e-4 0.83978,-0.02351 0.72651,-0.0512 -0.32578,-0.07969 3.47091,-0.51803 3.91088,-0.451518 0.21732,0.03285 0.28078,0.01448 0.14101,-0.04085 -0.13977,-0.05532 0.0588,-0.166972 0.44125,-0.248111 0.91809,-0.194779 5.61884,-0.572791 6.31281,-0.507651 0.29938,0.0281 0.68132,-0.0031 0.84876,-0.06937 0.20704,-0.08195 0.12345,-0.09752 -0.26137,-0.04868 -0.31113,0.03948 -0.22184,0.0034 0.19848,-0.08015 0.42031,-0.08357 0.91877,-0.128578 1.10768,-0.100023 0.18891,0.02856 0.34348,0.0023 0.34348,-0.05823 0,-0.06058 0.15381,-0.08691 0.34182,-0.05848 0.18796,0.02842 0.5658,-0.193174 0.83958,-0.492435 0.38073,-0.416139 0.7164,-0.564441 1.42734,-0.630559 0.58614,-0.05451 1.18904,-0.25265 1.63187,-0.53631 0.3863,-0.247424 0.8712,-0.44986 1.07755,-0.44986 0.20637,0 0.2598,-0.08897 0.11869,-0.197703 -0.19143,-0.147557 -0.0195,-0.220945 0.67774,-0.289343 0.51384,-0.0504 0.69699,-0.09445 0.407,-0.09788 -0.29001,-0.0035 -0.41342,-0.05131 -0.27427,-0.106377 0.13911,-0.05508 0.44972,-0.0704 0.69019,-0.03404 0.24129,0.03648 0.32283,0.02083 0.18192,-0.03493 -0.29115,-0.115221 1.24,-0.582678 1.78582,-0.545222 0.19739,0.01355 0.31361,-0.03079 0.25823,-0.09853 -0.0554,-0.06774 0.13935,-0.110985 0.43273,-0.09609 0.29339,0.01488 0.43578,-0.01164 0.31642,-0.05881 -0.29415,-0.116427 1.94541,-0.631063 2.3333,-0.536177 0.16926,0.0414 0.24733,0.0087 0.17345,-0.07252 -0.0738,-0.08129 0.0923,-0.13671 0.36922,-0.123162 0.27693,0.01355 0.46009,-0.0086 0.40714,-0.04926 -0.053,-0.04064 0.91112,-0.406434 2.14245,-0.812868 2.67886,-0.884216 5.60696,-2.053796 5.60696,-2.239617 0,-0.195091 2.85754,-0.919213 3.3397,-0.846314 0.2255,0.03409 0.29543,0.01671 0.15604,-0.03861 -0.2902,-0.114837 2.49326,-1.033355 2.93094,-0.967193 0.15794,0.02385 0.28687,-0.01152 0.28687,-0.0785 0,-0.176322 1.36052,-0.657704 1.8589,-0.657704 0.23311,0 0.30923,-0.028 0.16937,-0.06222 -0.37727,-0.09226 0.50047,-0.445444 0.94125,-0.378806 0.20789,0.03143 0.27022,-0.01167 0.13796,-0.09577 -0.13178,-0.0841 -0.0428,-0.152911 0.19315,-0.152911 0.23835,0 0.35014,-0.05541 0.24881,-0.123162 -0.28877,-0.192876 0.40581,-0.382728 1.14596,-0.313233 0.3687,0.03461 0.59943,0.09154 0.51271,0.126498 -0.0866,0.03497 0.56137,0.07042 1.4402,0.07878 1.61352,0.01536 2.92437,0.270398 2.44835,0.476353 -0.12655,0.05479 -0.0818,0.06675 0.0994,0.02658 0.38297,-0.08491 1.48906,0.110112 1.2226,0.215578 -0.0985,0.03902 0.0381,0.07262 0.30638,0.07465 0.26736,0.0021 1.56266,0.164618 2.87884,0.361275 1.31618,0.196658 2.55757,0.357559 2.75867,0.357559 0.71561,0 3.09525,0.318471 2.91443,0.390036 -0.10134,0.04004 0.33587,0.07643 0.97165,0.08086 0.63554,0.0044 1.85276,0.09369 2.70491,0.198381 2.49587,0.306613 6.65802,0.611214 8.86978,0.649125 1.12817,0.01934 2.23307,0.06265 2.45534,0.09626 0.22217,0.03361 0.62659,-0.0044 0.89833,-0.08451 0.27165,-0.08009 0.65928,-0.120647 0.86119,-0.09012 0.20219,0.03053 0.31732,-0.0033 0.25642,-0.07498 -0.0614,-0.07216 0.20267,-0.124449 0.58987,-0.116978 0.38535,0.0074 0.62117,-0.01791 0.52412,-0.05633 -0.0971,-0.0384 0.20505,-0.149734 0.67137,-0.247396 0.67255,-0.140864 1.28797,-0.166456 2.97713,-0.123809 1.45871,0.03682 2.26242,0.01454 2.55181,-0.07077 0.23264,-0.06849 0.3178,-0.150097 0.1903,-0.181354 -0.2745,-0.06709 1.01152,-0.762538 1.40981,-0.762538 0.15033,0 1.89677,-0.228507 3.88132,-0.507791 1.98454,-0.279284 3.82684,-0.508365 4.09402,-0.509069 0.26736,-7.04e-4 0.40438,-0.03359 0.30447,-0.07306 -0.0999,-0.03949 0.0894,-0.09721 0.42056,-0.128281 0.53002,-0.04975 0.6019,0.671533 0.6019,6.037746 v 6.094243 l -0.90628,0.05941 c -0.49848,0.03268 -1.8326,0.06001 -2.96471,0.06076 -1.13217,7.87e-4 -2.914,0.03002 -3.95977,0.06509 -1.56795,0.05258 -1.96757,0.108705 -2.27989,0.320221 -0.20837,0.141061 -0.55723,0.345151 -0.77565,0.453533 -0.21836,0.108379 -1.54672,0.859883 -2.95191,1.67 l -2.55486,1.47294 -2.15572,-0.02799 c -1.98574,-0.02578 -2.37499,-0.07426 -4.93508,-0.614585 -3.00972,-0.635225 -2.7896,-0.630195 -5.11444,-0.11687 -0.55381,0.12229 -2.94954,0.600607 -5.32381,1.062925 l -4.31691,0.84058 -5.89165,0.248049 c -3.2404,0.136427 -5.68046,6.256394 -8.49494,6.357484 -35.82833,1.463007 -77.28166,2.900851 -99.32289,-1.723945 l -21.97638,-3.141549 -3.91772,0.558139 c -2.15475,0.307009 -4.07629,0.55817 -4.27009,0.55817 -0.19382,0 -0.35238,0.03388 -0.35238,0.07528 0,0.186845 -3.69539,0.43267 -8.57566,0.570473 -2.92638,0.08264 -6.26914,0.176785 -7.42836,0.20923 l -2.10766,0.05899 -2.92725,-0.63964 c -3.31688,-0.724783 -4.61796,-0.911239 -7.04751,-1.009977 -2.11838,-0.08609 -4.0797,0.06394 -6.57984,0.503308 -1.9971,0.350967 -2.79344,0.409675 -2.79344,0.205936 0,-0.06871 -0.45966,-0.290399 -1.0215,-0.492648 -1.39301,-0.501461 -2.84027,-0.502985 -4.62817,-0.0049 -1.2514,0.348641 -1.32465,0.355393 -1.8705,0.172425 -2.09522,-0.702311 -2.91588,-0.772847 -4.81138,-0.413547 -1.16516,0.220858 -4.9799,1.098088 -12.26882,2.821308 -2.1477,0.50775 -4.08653,0.951133 -4.30851,0.985293 -0.22198,0.03416 -2.86128,0.633451 -5.86511,1.331754 -5.91145,1.374243 -8.0137,1.69998 -9.84704,1.525782 -0.62628,-0.0595 -2.15524,-0.07842 -3.56779,-0.04413 -2.60747,0.0633 -2.96585,0.01047 -2.96585,-0.436872 0,-0.238634 -0.99841,-0.475398 -2.34423,-0.555913 -0.59373,-0.03552 -1.17014,-0.09334 -1.28091,-0.128499 -0.11075,-0.03516 -1.15938,-0.163248 -2.33026,-0.284652 l -2.12887,-0.220737 -1.15566,0.201293 c -0.6356,0.110707 -1.23967,0.201293 -1.34237,0.201293 -0.10271,0 -3.51859,0.466889 -7.59087,1.037531 -4.0723,0.570637 -7.76668,1.055447 -8.20975,1.077352 -1.13381,0.05605 -8.88163,0.363406 -11.17781,0.443419 -1.16807,0.04071 -2.46416,0.02038 -3.32685,-0.05217 z M 419.10797,36.259238 c -0.12859,-0.0786 -0.22402,-0.05525 -0.24338,0.05953 -0.0171,0.103863 0.0777,0.16206 0.2116,0.12932 0.13383,-0.03274 0.14815,-0.117723 0.0319,-0.188848 z m 4.83352,-1.675 c -0.1286,-0.0786 -0.22403,-0.05525 -0.24339,0.05953 -0.0171,0.103863 0.0777,0.16206 0.21161,0.12932 0.13382,-0.03274 0.14814,-0.117724 0.0319,-0.188849 z M 43.832845,27.410061 c 0,-0.05419 -0.07992,-0.09853 -0.177641,-0.09853 -0.09767,0 -0.28963,0.04434 -0.426548,0.09853 -0.136918,0.0542 -0.05699,0.09853 0.177641,0.09853 0.234587,0 0.426548,-0.04434 0.426548,-0.09853 z m 219.119215,-9.00338 c 0,-0.02046 -0.31717,-0.09806 -0.70488,-0.172425 -0.63886,-0.122558 -0.65311,-0.119073 -0.1521,0.0372 0.5262,0.164126 0.85697,0.21632 0.85697,0.135226 z M 221.69473,7.2883999 c -0.36489,-0.04995 -0.8832,-0.06901 -1.15177,-0.04236 -0.26856,0.02665 -0.16042,0.05196 0.24034,0.05623 0.40076,0.0043 0.61792,0.05161 0.48257,0.105179 -0.14457,0.05723 0.03,0.0715 0.42313,0.03459 0.62032,-0.05824 0.62074,-0.06945 0.006,-0.15364 z"
         id="path312"
         sodipodi:nodetypes="csssssssssssssscccsssscsssscssscsssscssscscsscscssssssssssssscssssssssssssscssssssscsssssssssssssssssscssssssssssscssssssssscscsssssscsssssssscssssssssssscsssssssscscscscscsssssssssssssssssssssssssscsssssssscssscsssscsssssssssssssssssssssssssssssssscsssssssssssssssssssscsssssssssssssssscsssssssssssssssssssssssssssssssssssssssssscscssssscssssscscsssssssssssssssssssssscsssssscsssssscsssscscccssssscssssssssssssssssscsssssccscsssscssssssssssssssssssss" /><path
         style="fill:#333333;fill-opacity:1;stroke-width:0.999996"
         d="M -11.734963,40.534596 V 24.590003 l 7.6550843,-0.861807 c 4.21029552,-0.473994 7.9507798,-0.847515 8.3121857,-0.830047 0.4133938,0.01998 1.104341,0.333244 1.862965,0.84463 1.3676566,0.921933 1.3054741,0.914501 5.182687,0.619318 l 2.54227,-0.193551 7.497091,1.12958 c 4.1234,0.621268 7.719814,1.12958 7.992037,1.12958 0.272218,0 1.508579,-0.113418 2.747461,-0.252034 2.51051,-0.280899 2.644274,-0.269251 4.025631,0.350564 2.221812,0.996922 2.452969,1.05444 4.860106,1.209336 1.267027,0.08153 6.336168,0.419183 11.264762,0.750335 4.928593,0.331153 9.198002,0.602094 9.487566,0.602094 0.289582,0 2.057292,-0.235773 3.92828,-0.52394 5.854239,-0.901661 11.317426,-1.229788 13.789767,-0.828232 0.799794,0.129901 1.069929,0.104212 3.557175,-0.338317 7.271158,-1.293675 15.874597,-1.940716 22.214105,-1.670666 4.91049,0.209178 7.29139,0.57059 14.35344,2.178802 2.26068,0.514816 4.35065,0.94935 4.64438,0.965633 0.52613,0.02917 1.52691,-0.119599 5.02018,-0.746238 0.97476,-0.174859 1.92831,-0.317924 2.11899,-0.317924 0.49326,0 4.95958,0.710944 19.34816,3.079821 10.57677,1.741318 11.36411,1.87577 11.53498,1.969812 0.0738,0.04065 0.29743,0.0739 0.4968,0.0739 0.19938,0 2.74614,0.400956 5.65944,0.891012 l 5.2969,0.891013 2.06076,-0.09731 c 4.89063,-0.230942 5.95976,-0.22327 12.42796,0.08921 l 6.33929,0.306244 1.77141,-0.298129 c 0.97429,-0.163971 2.74365,-0.390163 3.93193,-0.502652 1.18828,-0.112487 2.70428,-0.265686 3.36889,-0.340443 0.66461,-0.07476 2.74906,-0.289524 4.63212,-0.477267 1.88305,-0.187738 4.96441,-0.506274 6.84747,-0.707855 1.88306,-0.201579 5.41756,-0.565242 7.85446,-0.80814 2.43689,-0.242898 5.337,-0.540828 6.44468,-0.662065 1.10768,-0.121238 3.55465,-0.370471 5.4377,-0.553853 3.07063,-0.299036 9.66034,-1.280812 10.00269,-1.490265 0.0738,-0.04518 0.30799,-0.08215 0.52033,-0.08215 0.21232,0 0.77518,-0.08868 1.25076,-0.197058 1.33989,-0.305352 4.32246,-0.272502 5.69278,0.0627 0.58405,0.142868 1.0619,0.294958 1.0619,0.337978 0,0.04303 0.55845,0.380597 1.24099,0.750169 0.68255,0.369571 1.49643,0.810751 1.80864,0.980397 1.05487,0.573207 4.63065,3.008319 5.24054,3.568818 1.41722,1.302432 2.24764,2.50085 2.46804,3.561707 l 0.23539,1.133088 1.69717,0.394118 c 2.67206,0.620511 3.01962,0.667209 8.45585,1.136095 6.5641,0.566169 23.94571,1.375434 29.55786,1.376173 1.71484,1.99e-4 4.99343,0.327515 16.66398,1.663495 3.19865,0.366164 8.08683,0.908113 13.59286,1.507031 1.43999,0.156634 2.98067,0.335238 3.42374,0.396898 0.79356,0.110438 2.34914,0.202359 19.53545,1.154398 4.76302,0.263847 10.83512,0.602368 13.49356,0.752263 l 4.8335,0.272539 4.48226,1.079016 4.48225,1.079016 3.5736,-0.20963 c 1.96548,-0.115292 4.8424,-0.292729 6.39315,-0.394296 1.55075,-0.10157 4.99463,-0.307678 7.65306,-0.458026 4.85627,-0.274646 6.66449,-0.446733 14.09775,-1.341686 3.28014,-0.394921 5.33656,-0.55707 11.07679,-0.873381 10.60542,-0.584408 11.76264,-0.65781 12.03476,-0.763379 0.13773,-0.05342 1.6038,-0.546476 3.25795,-1.095653 2.97173,-0.986605 3.0557,-1.004543 7.04887,-1.505087 2.22275,-0.278622 5.03827,-0.639179 6.25668,-0.80124 1.21847,-0.162062 3.03104,-0.4025 4.02795,-0.534309 0.99691,-0.131808 2.51499,-0.446584 3.37351,-0.699502 3.64716,-1.074455 5.58024,-1.513267 6.45112,-1.464402 0.46718,0.02621 2.29944,0.142552 4.07171,0.258532 3.28541,0.215001 16.57124,0.776957 23.66409,1.000924 l 3.92723,0.124008 v 7.569738 7.569738 H 244.84397 -11.734963 Z"
         id="path304" /></g></g></svg>
