<?xml version="1.0" encoding="UTF-8" standalone="no"?>
<!-- Created with Inkscape (http://www.inkscape.org/) -->

<svg
   width="160"
   height="160"
   viewBox="0 0 42.333332 42.333333"
   version="1.1"
   id="svg1"
   inkscape:version="1.3.2 (091e20e, 2023-11-25, custom)"
   sodipodi:docname="route.svg"
   xmlns:inkscape="http://www.inkscape.org/namespaces/inkscape"
   xmlns:sodipodi="http://sodipodi.sourceforge.net/DTD/sodipodi-0.dtd"
   xmlns="http://www.w3.org/2000/svg"
   xmlns:svg="http://www.w3.org/2000/svg">
  <sodipodi:namedview
     id="namedview1"
     pagecolor="#ffffff"
     bordercolor="#000000"
     borderopacity="0.25"
     inkscape:showpageshadow="2"
     inkscape:pageopacity="0.0"
     inkscape:pagecheckerboard="0"
     inkscape:deskcolor="#d1d1d1"
     inkscape:document-units="mm"
     inkscape:zoom="16.549473"
     inkscape:cx="76.588543"
     inkscape:cy="6.7373748"
     inkscape:window-width="1920"
     inkscape:window-height="1017"
     inkscape:window-x="-8"
     inkscape:window-y="-8"
     inkscape:window-maximized="1"
     inkscape:current-layer="g13" />
  <defs
     id="defs1">
    <inkscape:path-effect
       effect="spiro"
       id="path-effect8"
       is_visible="true"
       lpeversion="1" />
    <inkscape:path-effect
       effect="spiro"
       id="path-effect6"
       is_visible="true"
       lpeversion="1" />
    <inkscape:path-effect
       effect="spiro"
       id="path-effect4"
       is_visible="true"
       lpeversion="1" />
    <inkscape:path-effect
       effect="spiro"
       id="path-effect2"
       is_visible="true"
       lpeversion="1" />
    <inkscape:path-effect
       effect="spiro"
       id="path-effect1"
       is_visible="true"
       lpeversion="1" />
  </defs>
  <g
     inkscape:label="Calque 1"
     inkscape:groupmode="layer"
     id="layer1">
    <g
       id="g14"
       transform="translate(0,-47.625002)"
       style="display:none">
      <path
         style="opacity:1;fill:none;stroke:#0d2826;stroke-width:1.32292;stroke-linecap:round;stroke-linejoin:round;stroke-dasharray:2.64584;stroke-dashoffset:0;stroke-opacity:1;paint-order:stroke fill markers"
         d="M 22.237238,0.94908462 C 20.924015,3.2083433 20.321399,5.8738717 20.535049,8.4783216 c 0.279209,3.4036394 1.889934,6.5554924 2.517163,9.9124704 0.733376,3.925089 0.06073,8.097963 -1.868863,11.593794"
         id="path1"
         inkscape:path-effect="#path-effect1"
         inkscape:original-d="M 22.237238,0.94908462 C 21.384575,3.2512727 21.387711,6.0482341 20.535049,8.4783216 c -0.852662,2.4300874 2.303998,6.1607564 2.517163,9.9124704 0.213166,3.751713 -2.806791,7.756814 -1.868863,11.593794"
         transform="rotate(-7.2590513,62.569699,29.469575)"
         sodipodi:nodetypes="cssc" />
      <g
         id="g2"
         transform="translate(-16.772383,7.0344636)"
         style="stroke-width:1.32292;stroke-dasharray:none">
        <path
           style="opacity:1;fill:none;stroke:#0d2826;stroke-width:1.32292;stroke-linecap:round;stroke-linejoin:round;stroke-dasharray:none;stroke-dashoffset:0;stroke-opacity:1;paint-order:stroke fill markers"
           d="m -12.022538,47.706454 5.6915209,5.691518"
           id="path4"
           transform="translate(47.194856,-19.696498)"
           inkscape:original-d="m -12.022538,47.706454 c 1.98244,1.982438 3.8369804,3.83698 5.6915209,5.691518"
           inkscape:path-effect="#path-effect6" />
        <path
           style="opacity:1;fill:none;stroke:#0d2826;stroke-width:1.32292;stroke-linecap:round;stroke-linejoin:round;stroke-dasharray:none;stroke-dashoffset:0;stroke-opacity:1;paint-order:stroke fill markers"
           d="m -12.022538,47.706454 5.6915209,5.691518"
           id="path5"
           transform="rotate(-90,4.5724018,17.106536)"
           inkscape:original-d="m -12.022538,47.706454 c 1.98244,1.982438 3.8369804,3.83698 5.6915209,5.691518"
           inkscape:path-effect="#path-effect8" />
      </g>
      <circle
         style="opacity:1;fill:#0d2826;fill-opacity:1;stroke:none;stroke-width:0.79375;stroke-linecap:round;stroke-linejoin:round;stroke-dasharray:none;stroke-dashoffset:0;stroke-opacity:1;paint-order:stroke fill markers"
         id="path8"
         cx="21.057013"
         cy="3.1159651"
         r="2.6219366" />
    </g>
    <g
       id="g13">
      <path
         style="fill:#0d2826;fill-opacity:1;stroke:none;stroke-width:0.264583;stroke-linecap:round;stroke-linejoin:round;paint-order:stroke fill markers"
         d="m 20.529537,0.63306943 c -1.904689,0.21947203 -2.6988,3.14038027 -0.990459,4.17379917 1.209231,1.1153617 3.541821,1.0274998 3.921128,-0.8536431 0.438852,-1.3037647 0.03502,-3.51290039 -1.800234,-3.09406067"
         id="path2" />
      <g
         id="g15"
         style="stroke:#0d2826;stroke-opacity:1;fill:none;fill-opacity:1;stroke-width:0.7;stroke-dasharray:none">
        <path
           style="fill:#dbd9d5;fill-opacity:1;stroke:#0d2826;stroke-width:0.7;stroke-linecap:round;stroke-linejoin:round;paint-order:stroke fill markers;stroke-opacity:1;stroke-dasharray:none"
           d="m 19.263398,6.0141595 c -0.0303,0.025252 -0.34568,0.2741936 -0.406973,0.361754 -0.14527,0.2075294 -0.207966,0.4159337 -0.316534,0.6330696 -0.02431,0.048609 -0.07025,0.085198 -0.09044,0.1356577 -0.0112,0.02799 0.0095,0.061839 0,0.090438 -0.05582,0.1674487 -0.17028,0.3299627 -0.226096,0.4974116 -0.0095,0.028599 0.0073,0.061192 0,0.090439 -0.07381,0.2952181 -0.02428,-0.1708462 -0.09044,0.2260962 -0.07052,0.423091 -0.135658,0.7971944 -0.135658,1.2209196"
           id="path3" />
        <path
           style="fill:#dbd9d5;fill-opacity:1;stroke:#0d2826;stroke-width:0.7;stroke-linecap:round;stroke-linejoin:round;stroke-dasharray:none;stroke-opacity:1;paint-order:stroke fill markers"
           d="m 18.042478,11.485688 c 0.04578,0.685237 -2.17e-4,1.400711 0.135658,2.080085 0.05254,0.262723 0.222595,0.508885 0.271316,0.768727 0.03068,0.163636 0.03414,0.331293 0.04522,0.497412 0.004,0.06016 -0.01656,0.122904 0,0.180877 0.03955,0.138426 0.216229,0.351887 0.316535,0.452192"
           id="path6" />
        <path
           style="fill:#dbd9d5;fill-opacity:1;stroke:#0d2826;stroke-width:0.7;stroke-linecap:round;stroke-linejoin:round;stroke-dasharray:none;stroke-opacity:1;paint-order:stroke fill markers"
           d="m 19.353837,18.178136 c 0.940219,2.256526 0.01859,-0.133908 0.723508,2.306182 0.08079,0.279673 0.2067,0.544352 0.316535,0.813946 0.07393,0.181468 0.226096,0.346681 0.226096,0.542631"
           id="path7" />
        <path
           style="fill:#dbd9d5;fill-opacity:1;stroke:#0d2826;stroke-width:0.7;stroke-linecap:round;stroke-linejoin:round;stroke-dasharray:none;stroke-opacity:1;paint-order:stroke fill markers"
           d="m 21.233907,24.168324 c 0.772824,1.996343 0.316962,0.561853 0.686714,2.275992 l 0.04537,1.634788"
           id="path9"
           sodipodi:nodetypes="ccc" />
        <path
           style="fill:#dbd9d5;fill-opacity:1;stroke:#0d2826;stroke-width:0.7;stroke-linecap:round;stroke-linejoin:round;stroke-dasharray:none;stroke-opacity:1;paint-order:stroke fill markers"
           d="m 21.97268,30.518144 c 0.252526,1.436686 -0.02427,2.869308 -0.17247,4.30093"
           id="path10" />
        <path
           style="fill:#dbd9d5;fill-opacity:1;stroke:#0d2826;stroke-width:0.7;stroke-linecap:round;stroke-linejoin:round;paint-order:stroke fill markers;stroke-opacity:1;stroke-dasharray:none"
           d="m 18.494671,34.592723 c 0.256243,0.331607 0.499924,0.673314 0.768727,0.994822 0.50023,0.598313 1.052638,1.152681 1.537455,1.763551 0.319732,0.402863 0.920828,1.438794 1.266139,1.899209 0.211904,0.282538 0.454264,0.540916 0.678288,0.813945 0.459565,0.560094 0.890848,1.116944 1.401797,1.627894"
           id="path12" />
        <path
           style="fill:#dbd9d5;fill-opacity:1;stroke:#0d2826;stroke-width:0.7;stroke-linecap:round;stroke-linejoin:round;paint-order:stroke fill markers;stroke-opacity:1;stroke-dasharray:none"
           d="m 18.313794,40.832979 c 0.226097,-0.241171 0.434312,-0.500444 0.678289,-0.723509 0.284923,-0.260501 0.607806,-0.476358 0.904385,-0.723508 0.673204,-0.561004 1.354318,-1.114769 1.989647,-1.718331 0.286012,-0.271712 0.534992,-0.58021 0.813946,-0.859166 0.263887,-0.263885 0.55006,-0.504841 0.813946,-0.768726 0.520262,-0.520263 0.516223,-0.598257 0.994824,-1.040042 0.19793,-0.14845 0.127585,-0.08237 0.226096,-0.180877"
           id="path13" />
      </g>
      <path
         style="fill:#0d2826;fill-opacity:1;stroke:none;stroke-width:0.264583;stroke-linecap:round;stroke-linejoin:round;paint-order:stroke fill markers"
         d="m 20.529537,0.63306943 c -1.904689,0.21947203 -2.6988,3.14038027 -0.990459,4.17379917 1.209231,1.1153617 3.541821,1.0274998 3.921128,-0.8536431 0.438852,-1.3037647 0.03502,-3.51290039 -1.800234,-3.09406067"
         id="path15" />
      <path
         style="fill:#dbd9d5;fill-opacity:1;stroke:none;stroke-width:0.4;stroke-linecap:round;stroke-linejoin:round;stroke-dasharray:none;stroke-opacity:1;paint-order:stroke fill markers"
         d="M 19.856372,1.3749179 C 19.531937,1.7899129 19.376718,2.238498 19.3128,2.7498357 19.30148,2.8404067 19.34933,2.9691078 19.28083,3.0376092"
         id="path18" />
      <path
         style="fill:#dbd9d5;fill-opacity:1;stroke:none;stroke-width:0.4;stroke-linecap:round;stroke-linejoin:round;stroke-dasharray:none;stroke-opacity:1;paint-order:stroke fill markers"
         d="m 22.830032,1.4068927 c 0.206006,0.4008549 0.361015,0.6642965 0.447648,1.1191193 0.09064,0.4758716 0.06395,0.2609355 0.06395,0.7993708 0,0.047496 0.01296,0.7993708 -0.09592,0.7993708 -0.02132,0 0,-0.042633 0,-0.06395 0,-0.1385575 0.0092,-0.2774222 0,-0.4156728 -0.01214,-0.1820362 -0.0063,-0.3704942 -0.06395,-0.5435722 -0.302093,-0.9062799 -0.152783,0.1242865 -0.319748,-0.5435722 -0.01292,-0.0517 0.0075,-0.1071184 0,-0.1598742 -0.0022,-0.015099 -0.09455,-0.18978 -0.09592,-0.191849 -0.0059,-0.00887 -0.02132,0 -0.03197,0"
         id="path21" />
      <path
         style="fill:#dbd9d5;fill-opacity:1;stroke:none;stroke-width:0.4;stroke-linecap:round;stroke-linejoin:round;stroke-dasharray:none;stroke-opacity:1;paint-order:stroke fill markers"
         d="m 21.902762,2.7178611 c -0.07093,0.1674325 -0.09592,0.300587 -0.09592,0.4796224 0,0.010657 -0.0075,-0.02444 0,-0.031975 0.01685,-0.016851 0.04534,-0.017087 0.06395,-0.031975 0.06642,-0.053133 0.116218,-0.1860081 0.191849,-0.223824 0.0286,-0.014301 0,0.06395 0,0.095924 0,0.074608 0,0.1492161 0,0.2238241"
         id="path23" />
      <path
         style="fill:#dbd9d5;fill-opacity:1;stroke:none;stroke-width:0.4;stroke-linecap:round;stroke-linejoin:round;stroke-dasharray:none;stroke-opacity:1;paint-order:stroke fill markers"
         d="m 21.870787,4.3166027 c -0.181191,0.1918491 -0.352254,0.3937952 -0.543572,0.575547 -0.03456,0.03283 -0.161604,0.030245 -0.1279,0.06395 0.01507,0.015073 0.04263,0 0.06395,0 0.05329,0 0.107726,0.010978 0.159874,0 0.151859,-0.03197 0.305009,-0.066768 0.447648,-0.1278996 0.08427,-0.036117 0.145739,-0.1118216 0.223824,-0.1598739 0.09701,-0.059701 0.215624,-0.1078119 0.319748,-0.1598742"
         id="path24" />
      <path
         style="fill:#dbd9d5;fill-opacity:1;stroke:none;stroke-width:0.4;stroke-linecap:round;stroke-linejoin:round;stroke-dasharray:none;stroke-opacity:1;paint-order:stroke fill markers"
         d="m 22.366397,37.074821 c 0.06027,-0.0241 0.180202,-0.06224 0.239811,-0.111911 0.0092,-0.0076 0.0065,-0.02482 0.01599,-0.03198 0.03697,-0.02772 0.08855,-0.03247 0.127899,-0.06395 0.03425,-0.0274 0.05158,-0.06757 0.07994,-0.09592 0.0038,-0.0038 0.01122,0.0024 0.01599,0 0.03483,0.006 0.0053,-0.02665 0.01599,-0.03198 0.03689,-0.01844 0.146212,-0.01598 0.191849,-0.01598 0.09659,0 0.183641,-0.01987 0.271786,-0.06395 0.01629,-0.0081 0.101533,-0.04609 0.04796,-0.06395 -0.04733,-0.01577 -0.244989,0 -0.319748,0"
         id="path25" />
      <path
         style="fill:#dbd9d5;fill-opacity:1;stroke:none;stroke-width:0.4;stroke-linecap:round;stroke-linejoin:round;stroke-dasharray:none;stroke-opacity:1;paint-order:stroke fill markers"
         d="m 24.061063,35.02843 c 0.0068,0.195194 -0.05974,0.366353 -0.127899,0.543574 -0.01393,0.03621 -0.05941,0.08448 -0.03198,0.111911 0.0053,0.0053 0.01262,-0.0092 0.01599,-0.01598 0.134146,-0.268293 -0.02608,0.0071 0.09593,-0.175861 0.04898,-0.07348 0.107368,-0.15947 0.143886,-0.239813 0.01395,-0.03068 0.0169,-0.06578 0.03197,-0.09593 0.01192,-0.02384 0.03425,-0.0411 0.04796,-0.06395 0.04065,-0.06775 0.05698,-0.120931 0.111912,-0.175861"
         id="path26" />
      <path
         style="fill:#dbd9d5;fill-opacity:1;stroke:none;stroke-width:0.4;stroke-linecap:round;stroke-linejoin:round;stroke-dasharray:none;stroke-opacity:1;paint-order:stroke fill markers"
         d="m 18.641329,34.308997 c 0.134148,0.04904 0.102704,0.206496 0.143887,0.319749 0.02443,0.06719 0.07331,0.12402 0.09592,0.191849 0.01025,0.03075 0.0067,0.06488 0.01599,0.09593 0.0068,0.02283 0.02619,0.04083 0.03197,0.06395 0.03065,0.122619 -0.02493,0.0016 0.03197,0.143886 0.002,0.0049 -0.0053,0.01598 0,0.01598 0.0053,0 0,-0.01066 0,-0.01598 0,-0.02664 0,-0.05329 0,-0.07994 0,-0.106582 0,-0.213167 0,-0.319749"
         id="path27" />
      <path
         style="fill:#dbd9d5;fill-opacity:1;stroke:none;stroke-width:0.4;stroke-linecap:round;stroke-linejoin:round;stroke-dasharray:none;stroke-opacity:1;paint-order:stroke fill markers"
         d="m 18.561392,40.67199 c 0.134108,-0.235468 0.23793,-0.518181 0.463635,-0.687459 0.05799,-0.04349 0.142446,-0.03268 0.207836,-0.06395 0.16713,-0.07993 0.172328,-0.13724 0.287774,-0.223825 0.06094,-0.0457 0.131879,-0.07992 0.191849,-0.127899 0.06402,-0.05122 0.139154,-0.06612 0.207836,-0.111911 0.04019,-0.02679 0.06395,-0.0582 0.06395,-0.04796 0,0.02641 -0.06935,0.06512 -0.07994,0.07994 -0.01385,0.01939 -0.01647,0.04585 -0.03197,0.06395 -0.01734,0.02024 -0.04423,0.03004 -0.06395,0.04796 -0.06134,0.05577 -0.108401,0.127677 -0.175861,0.175863 -0.04633,0.03309 -0.09948,0.03552 -0.143887,0.07994"
         id="path28" />
      <path
         style="fill:#dbd9d5;fill-opacity:1;stroke:none;stroke-width:0.4;stroke-linecap:round;stroke-linejoin:round;stroke-dasharray:none;stroke-opacity:1;paint-order:stroke fill markers"
         d="m 22.078623,39.169173 c 0,0.178964 -0.01991,0.209349 0.04796,0.36771 0.02099,0.04898 0.06768,0.08271 0.09592,0.127899 0.02488,0.0398 0.03785,0.08875 0.06395,0.1279 0.01066,0.01598 0.01839,0.03438 0.03197,0.04796 0.0038,0.0038 0.0136,-0.0048 0.01599,0 0.0048,0.0095 -0.0034,0.02185 0,0.03197 0.0075,0.02262 0.02361,0.04163 0.03197,0.06395 0.0077,0.02058 0.01168,0.0424 0.01599,0.06395 10e-4,0.0052 0,0.02133 0,0.01598 0,-0.06063 0.0075,-0.132117 0,-0.191849 -0.0075,-0.06029 -0.03797,-0.115927 -0.04796,-0.175861 -0.0053,-0.03154 0.0063,-0.06457 0,-0.09592 0.02717,-0.04328 -0.02444,-0.04134 -0.03197,-0.06395 -0.01065,-0.03196 0,-0.09463 0,-0.1279"
         id="path29" />
      <path
         style="fill:#dbd9d5;fill-opacity:1;stroke:none;stroke-width:0.4;stroke-linecap:round;stroke-linejoin:round;stroke-dasharray:none;stroke-opacity:1;paint-order:stroke fill markers"
         d="m 21.934737,33.093953 c 0,0.05862 0,0.117242 0,0.175864 0,0.229152 0,0.458305 0,0.687458 0,0.03003 0.0072,0.06715 0,0.09592 -0.01118,0.0447 -0.03197,0.08143 -0.03197,0.1279 0,0.0118 0.02821,0.08746 0.04796,0.04796 0.02163,-0.04326 -0.0075,-0.2516 0,-0.30376 0.0031,-0.02146 0.06933,-0.306568 0.07994,-0.335738 0.01062,-0.0292 0.03572,-0.05137 0.04796,-0.07994 0.0042,-0.0098 -0.004,-0.02207 0,-0.03198 0.0071,-0.01783 0.02484,-0.03012 0.03197,-0.04796 0.01503,-0.03757 0.0091,-0.07301 0.04796,-0.111913"
         id="path30" />
      <path
         style="fill:#dbd9d5;fill-opacity:1;stroke:none;stroke-width:0.4;stroke-linecap:round;stroke-linejoin:round;stroke-dasharray:none;stroke-opacity:1;paint-order:stroke fill markers"
         d="m 21.29524,0.84733311 c -0.02665,0.0852662 -0.04738,0.17260829 -0.07994,0.25579869 -0.06349,0.162259 -0.145097,0.3170707 -0.207836,0.4796225 -0.05461,0.1414964 -0.09183,0.289202 -0.143887,0.4316603 -0.04924,0.1347765 -0.110396,0.2649943 -0.159874,0.3996854 -0.104788,0.2852553 -0.177098,0.5573504 -0.271786,0.8473332 -0.06125,0.1875767 -0.148504,0.3964811 -0.19185,0.5915343 -0.04176,0.1879298 -0.01995,0.3850817 -0.04796,0.5755471 -0.01226,0.083365 -0.0595,0.158066 -0.07994,0.2398114 -0.01122,0.044878 0.0069,0.1050359 -0.03197,0.1438868 -0.0075,0.00754 0,-0.021318 0,-0.031975 0,-0.1145598 -0.0065,-0.069462 0.03197,-0.2078366 0.06192,-0.2229117 0.155723,-0.4341553 0.223824,-0.655484 0.10292,-0.3344916 0.190497,-0.6196767 0.255799,-0.959245 0.02647,-0.1376654 0.03592,-0.2783163 0.06395,-0.4156729 0.204725,-0.7847782 0.0077,0.023681 0.143887,-0.687459 0.03197,-0.1438867 0.06395,-0.2877735 0.09593,-0.4316603 0,-0.010658 -0.0015,-0.021424 0,-0.031975 0.0052,-0.036152 0.03197,-0.090532 0.03197,-0.1278993"
         id="path31" />
    </g>
  </g>
</svg>
